<svg width="520" height="230" viewBox="0 0 520 230" fill="none" xmlns="http://www.w3.org/2000/svg">
  <rect x="1" y="1" width="518" height="228" rx="16" fill="#FAFAFA" stroke="#E7E5E4"/>
  <rect x="36" y="34" width="122" height="122" rx="28" fill="#FFFFFF" stroke="#D6D3D1"/>
  <path d="M70 84V68C70 52 82 42 97 42C112 42 124 52 124 68V84" stroke="#0C0A09" stroke-width="2.4" stroke-linecap="round"/>
  <rect x="62" y="84" width="70" height="52" rx="15" stroke="#0C0A09" stroke-width="2.4"/>
  <path d="M97 105V120" stroke="#0C0A09" stroke-width="2.4" stroke-linecap="round"/>
  <circle cx="97" cy="104" r="5" fill="#0C0A09"/>
  <g font-family="Inter, -apple-system, BlinkMacSystemFont, sans-serif">
    <text x="36" y="184" fill="#0C0A09" font-size="17" font-weight="600">Private controls</text>
    <text x="36" y="207" fill="#777169" font-size="13">Reports and account data stay manageable.</text>
  </g>
  <g>
    <path d="M198 82H484" stroke="#E7E5E4"/>
    <path d="M216 58L222 64L233 51" stroke="#0C0A09" stroke-width="2.4" stroke-linecap="round" stroke-linejoin="round"/>
    <text x="252" y="64" fill="#0C0A09" font-family="Inter, -apple-system, BlinkMacSystemFont, sans-serif" font-size="15" font-weight="600">No brand-paid recommendations</text>
  </g>
  <g>
    <path d="M198 140H484" stroke="#E7E5E4"/>
    <path d="M216 116L222 122L233 109" stroke="#0C0A09" stroke-width="2.4" stroke-linecap="round" stroke-linejoin="round"/>
    <text x="252" y="122" fill="#0C0A09" font-family="Inter, -apple-system, BlinkMacSystemFont, sans-serif" font-size="15" font-weight="600">Skin history belongs to the user</text>
  </g>
  <g>
    <path d="M216 174L222 180L233 167" stroke="#0C0A09" stroke-width="2.4" stroke-linecap="round" stroke-linejoin="round"/>
    <text x="252" y="180" fill="#0C0A09" font-family="Inter, -apple-system, BlinkMacSystemFont, sans-serif" font-size="15" font-weight="600">Delete reports when needed</text>
  </g>
</svg>
