<svg xmlns="http://www.w3.org/2000/svg" viewBox="0 0 720 720" role="img" aria-label="">
  <rect width="720" height="720" fill="none"/>
  <g opacity=".72" stroke="#d3cec7" stroke-width="1.1" fill="none">
    <path d="M122 156h186M112 198h236M138 240h154"/>
    <path d="M430 146h160M404 188h212M450 230h122"/>
    <path d="M104 508h224M132 550h168"/>
    <path d="M444 502h174M410 544h220"/>
  </g>
  <g fill="none" stroke="#0c0a09">
    <path d="M360 70C285 154 224 238 224 348c0 96 55 185 136 185s136-89 136-185C496 238 435 154 360 70Z" fill="#fff" stroke-width="1.4"/>
    <path d="M360 116C304 184 260 253 260 348c0 74 38 143 100 143s100-69 100-143c0-95-44-164-100-232Z" stroke-width="1" opacity=".16"/>
    <path d="M254 382c64 22 148 22 212 0" stroke-width="46" stroke-linecap="round"/>
    <path d="M254 382c64 22 148 22 212 0" stroke="#fff" stroke-width="1.1" opacity=".28"/>
  </g>
  <g fill="#fff" stroke="#0c0a09" stroke-width="1.15">
    <rect x="92" y="306" width="176" height="82" rx="12"/>
    <rect x="452" y="318" width="178" height="82" rx="12"/>
    <rect x="272" y="556" width="176" height="70" rx="12"/>
  </g>
  <g fill="#0c0a09" font-family="Inter, Arial, sans-serif">
    <text x="360" y="338" text-anchor="middle" font-size="78" font-weight="650">72</text>
    <text x="360" y="370" text-anchor="middle" font-size="14" font-weight="650" letter-spacing="5">CHECKED</text>
    <text x="126" y="340" font-size="13" font-weight="700">label</text>
    <text x="126" y="362" font-size="12" fill="#746f67">claims + formula</text>
    <text x="486" y="352" font-size="13" font-weight="700">fit</text>
    <text x="486" y="374" font-size="12" fill="#746f67">skin history</text>
    <text x="314" y="592" font-size="13" font-weight="700">routine</text>
    <text x="314" y="612" font-size="12" fill="#746f67">what happens next</text>
  </g>
  <g stroke="#0c0a09" stroke-width="1" fill="none" opacity=".34">
    <path d="M268 344c29-8 53-7 78 2"/>
    <path d="M452 360c-33 4-60 0-86-12"/>
    <path d="M360 533v23"/>
  </g>
</svg>
