<svg xmlns="http://www.w3.org/2000/svg" viewBox="0 0 650 620" role="img" aria-label="">
  <rect width="650" height="620" fill="none"/>
  <g fill="#fff" stroke="#0c0a09" stroke-width="1.2">
    <rect x="84" y="78" width="482" height="464" rx="22"/>
    <rect x="184" y="188" width="282" height="246" rx="18"/>
  </g>
  <g stroke="#0c0a09" stroke-width="1.4" fill="none">
    <path d="M256 188v-32c0-39 29-68 69-68s69 29 69 68v32"/>
    <path d="M272 188v-30c0-29 21-50 53-50s53 21 53 50v30"/>
  </g>
  <circle cx="325" cy="306" r="34" fill="#0c0a09"/>
  <path d="M325 332v42" stroke="#0c0a09" stroke-width="13" stroke-linecap="round"/>
  <g font-family="Inter, Arial, sans-serif" fill="#0c0a09">
    <text x="134" y="488" font-size="16" font-weight="700">user-owned history</text>
    <text x="134" y="514" font-size="13" fill="#746f67">delete reports, account data, and saved context</text>
  </g>
  <g fill="none" stroke="#0c0a09" stroke-width="1.2">
    <path d="M474 130l12 12 24-30"/>
    <path d="M474 488l12 12 24-30"/>
  </g>
</svg>
