<svg xmlns="http://www.w3.org/2000/svg" viewBox="0 0 700 700" role="img" aria-label="">
  <rect width="700" height="700" fill="none"/>
  <g fill="none" stroke="#0c0a09" stroke-width="1.2">
    <path d="M350 84C278 166 220 246 220 350c0 92 52 176 130 176s130-84 130-176C480 246 422 166 350 84Z" fill="#fff"/>
    <path d="M350 128C296 194 255 260 255 350c0 70 36 134 95 134s95-64 95-134c0-90-41-156-95-222Z" opacity=".16"/>
  </g>
  <path d="M254 392c58 18 134 18 192 0" stroke="#0c0a09" stroke-width="42" stroke-linecap="round"/>
  <g fill="#fff" stroke="#0c0a09" stroke-width="1.1">
    <rect x="74" y="154" width="190" height="96" rx="12"/>
    <rect x="436" y="154" width="190" height="96" rx="12"/>
    <rect x="74" y="450" width="190" height="96" rx="12"/>
    <rect x="436" y="450" width="190" height="96" rx="12"/>
  </g>
  <g stroke="#d3cec7" stroke-width="1" fill="none">
    <path d="M264 202c34 6 58 21 78 55"/>
    <path d="M436 202c-34 6-58 21-78 55"/>
    <path d="M264 498c35-8 59-28 80-66"/>
    <path d="M436 498c-35-8-59-28-80-66"/>
  </g>
  <g fill="#0c0a09" font-family="Inter, Arial, sans-serif">
    <text x="350" y="354" text-anchor="middle" font-size="24" font-weight="700">tonight</text>
    <text x="350" y="382" text-anchor="middle" font-size="12" font-weight="650" letter-spacing="3" fill="#fff">REMEMBERED</text>
    <text x="110" y="190" font-size="13" font-weight="700">morning</text>
    <text x="110" y="214" font-size="12" fill="#746f67">place after cleanse</text>
    <text x="472" y="190" font-size="13" font-weight="700">evening</text>
    <text x="472" y="214" font-size="12" fill="#746f67">slower introduction</text>
    <text x="110" y="486" font-size="13" font-weight="700">tolerance</text>
    <text x="110" y="510" font-size="12" fill="#746f67">watch for irritation</text>
    <text x="472" y="486" font-size="13" font-weight="700">history</text>
    <text x="472" y="510" font-size="12" fill="#746f67">next scan has context</text>
  </g>
  <g fill="none" stroke="#0c0a09" stroke-width="1.3">
    <path d="M226 187l7 7 15-21"/>
    <path d="M588 187l7 7 15-21"/>
    <circle cx="234" cy="498" r="12"/>
    <path d="M588 483l7 7 15-21"/>
  </g>
</svg>
